<svg id="visual" viewBox="0 0 900 600" width="900" height="600" xmlns="http://www.w3.org/2000/svg" xmlns:xlink="http://www.w3.org/1999/xlink" version="1.1"><rect x="0" y="0" width="900" height="600" fill="#FF0066"></rect><g transform="translate(518.8489460997216 289.79737083558047)"><path d="M130.9 -159.9C164.9 -155.4 184.7 -110.9 194.9 -66.4C205.1 -21.9 205.7 22.6 192.1 61.8C178.5 101.1 150.7 135.1 116.3 154.1C81.9 173.1 40.9 177 -14 196.3C-69 215.6 -137.9 250.2 -197.4 239.3C-256.8 228.5 -306.7 172.2 -327.9 106.6C-349 41.1 -341.4 -33.7 -316 -99.8C-290.5 -165.9 -247.2 -223.3 -191.6 -220.9C-136 -218.4 -68 -156.1 -9.8 -142.6C48.4 -129.1 96.8 -164.5 130.9 -159.9" fill="#BB004B"></path></g></svg>